<svg data-v-281971ae="" data-v-c85cbe13="" xmlns="http://www.w3.org/2000/svg" xmlns:xlink="http://www.w3.org/1999/xlink" viewBox="0 0 48 48" width="48" height="48"><defs data-v-281971ae=""><linearGradient id="feature-linear-gradient" x1="3.862" x2="44.962" y1="3.486" y2="44.587" gradientUnits="userSpaceOnUse" data-v-281971ae=""><stop offset="0" stop-color="#b78f6d" data-v-281971ae=""></stop><stop offset="1" stop-color="#6d523b" data-v-281971ae=""></stop></linearGradient><linearGradient id="feature-linear-gradient-2" x1="3.862" x2="44.962" y1="3.486" y2="44.587" gradientUnits="userSpaceOnUse" data-v-281971ae=""><stop offset="0" stop-color="#fff" data-v-281971ae=""></stop><stop offset=".997" stop-color="#d8ae8a" data-v-281971ae=""></stop></linearGradient><clipPath id="feature-clippath" data-v-281971ae=""><path id="mask_photo" d="M41.976 0 48 6.024v35.525L41.549 48H6.776L0 41.224V7.349L7.349 0h34.627z" class="cls-4" data-v-281971ae=""></path></clipPath><clipPath id="feature-clippath-1" data-v-281971ae=""><path id="mask_photo-2" d="M41.976 0 48 6.024v35.525L41.549 48H6.776L0 41.224V7.349L7.349 0h34.627z" class="cls-4" data-name="mask_photo" data-v-281971ae=""></path></clipPath></defs><g data-v-281971ae="" id="Normal"><g data-v-281971ae="" id="Shape" clip-path="url(#feature-clippath)"><image data-v-281971ae="" xlink:href="/icons/races/features/speed.png" id="image" width="48" height="48"></image></g><path data-v-281971ae="" id="outline" fill="url(#feature-linear-gradient)" d="M41.562 1 47 6.438v34.697L41.135 47H7.19L1 40.81V7.763L7.763 1h33.799m.414-1H7.349L0 7.349v33.875L6.776 48h34.773L48 41.549V6.024L41.976 0Z"></path></g><g data-v-281971ae="" id="Hover"><g data-v-281971ae="" id="Shape-2" clip-path="url(#feature-clippath-1)" data-name="Shape"><image data-v-281971ae="" xlink:href="/races/features/speed.png" id="image" width="48" height="48"></image></g><path data-v-281971ae="" id="outline-2" fill="url(#feature-linear-gradient-2)" d="M41.148 2 46 6.852v33.869L40.72 46H7.605L2 40.396V8.177L8.177 2h32.97m.829-2H7.349L0 7.349v33.875L6.776 48h34.773L48 41.549V6.024L41.976 0Z" data-name="outline"></path></g></svg>