<svg version="1.1" id="Cornner" xmlns="http://www.w3.org/2000/svg" x="0" y="0" viewBox="0 0 108 108" width="108" height="108" style="enable-background:new 0 0 108 108" xml:space="preserve"><linearGradient id="top_00000099647592814119593760000013867530735874996625_" gradientUnits="userSpaceOnUse" x1="52.035" y1="18.984" x2="52.035" y2="102.546"><stop offset="0" style="stop-color:#534c3f"/><stop offset="1" style="stop-color:#534c3f;stop-opacity:0"/></linearGradient><path id="top_00000055695985432735256130000012234459682186223548_" style="fill-rule:evenodd;clip-rule:evenodd;fill:url(#top_00000099647592814119593760000013867530735874996625_)" d="M95.793 31.181 75.66 26.16a69.71 69.71 0 0 1-7.555 17.799l27.51 17.474-.508.88-27.535-17.488a70.405 70.405 0 0 1-9.697 12.324l37.792 37.791-.72.72-37.791-37.792A70.375 70.375 0 0 1 43.208 68.53l15.114 26.569-.881.508-15.114-26.57a69.657 69.657 0 0 1-16.16 6.608l5.023 20.139-.982.263-5.024-20.14a70.241 70.241 0 0 1-17.17 2.143V76.9a69.118 69.118 0 0 0 16.89-2.112L14.511 33.124l.982-.263 10.394 41.664a68.544 68.544 0 0 0 15.868-6.494L20.606 30.852l.881-.508 21.15 37.18A69.24 69.24 0 0 0 56.337 57.05L26.642 27.352l.72-.719L57.057 56.33a69.279 69.279 0 0 0 9.54-12.126l-35.85-22.77.508-.882L67.13 43.338a68.592 68.592 0 0 0 7.413-17.458L32.87 15.484l.263-.983 41.672 10.396A69.115 69.115 0 0 0 76.921 8h1.148a70.24 70.24 0 0 1-2.146 17.177L96.056 30.2l-.263.982z"/><linearGradient id="addition_00000046317583238846940350000005844564156192907403_" gradientUnits="userSpaceOnUse" x1="43.588" y1="18.699" x2="105.531" y2="18.699"><stop offset="0" style="stop-color:#534c3f"/><stop offset="1" style="stop-color:#7a6952"/></linearGradient><path id="addition" style="fill-rule:evenodd;clip-rule:evenodd;fill:url(#addition_00000046317583238846940350000005844564156192907403_)" d="m42.706 8.217 5.285-5.253.035.035H108v1H48.364l-4.953 4.924-.705-.706zM9.939 34.434c13.532 0 24.501-10.97 24.501-24.5 0-.653-.037-1.296-.091-1.934h-1.493c.056.653.1 1.309.1 1.976 0 12.703-10.297 23-23 23-.66 0-1.31-.044-1.957-.099v1.459l1 .05c.315.012.623.048.94.048z"/><path id="top_00000076595491612727559940000010575777323234550972_" d="M9 108V85.705a21.7 21.7 0 0 0 .708 2.027c.779 1.84 2.973 4.707 5.361 5.12-12.071-12.07-4.15-38.223 16.35-59.312 4.053 3.402 7.365 6.625 7.365 6.625s-3.056-3.52-6.233-7.78C53.798 11.207 81.57 3.073 93.82 15.322c-.357-1.355-1.654-3.366-2.83-4.168-1.658-.95-3.478-1.66-5.423-2.155H108v-1H29.186l.003-.066c0-2.424-.425-4.744-1.173-6.915l-1.144.519a19.94 19.94 0 0 1 1.061 6.39c0 4.438-1.464 8.525-3.91 11.843a23.337 23.337 0 0 1-5.664-2.291c-1.73-.984-2.726-1.819-2.726-1.819s.774 1.041 1.652 2.818a23.556 23.556 0 0 1 1.981 5.92 19.897 19.897 0 0 1-11.333 3.529c-2.351 0-4.597-.427-6.692-1.172L.918 27.97c2.201.772 4.557 1.213 7.022 1.213L8 29.18v46.438a32.458 32.458 0 0 0 0 4.518V108h1zM29.135 8.999h41.38c-12.349 2.472-26.482 10.338-38.664 22.44-2.982-4.078-5.912-8.606-6.364-11.345-.046-.008-.089-.02-.134-.028A21.125 21.125 0 0 0 29.136 9zM8.999 29.13a21.103 21.103 0 0 0 10.498-3.413c.001.013.005.025.007.038 2.726.615 7.096 3.815 11.012 7.04-11.317 11.654-18.849 24.73-21.517 36.3V29.13zm2.986-19.475c.717.743.767 1.9.07 2.534-.692.64-1.825.545-2.53-.218-.706-.762-.731-1.89-.055-2.517.682-.62 1.79-.55 2.515.2z" style="fill-rule:evenodd;clip-rule:evenodd;fill:#c19976"/></svg>