<svg width="20" height="20" viewBox="0 0 20 20" fill="none" xmlns="http://www.w3.org/2000/svg"><path d="M19.9764 5.97589L17.2688 13.3081C16.9897 14.3051 16.0831 14.9952 15.0485 15H8.09971C7.06126 15 6.15081 14.308 5.87075 13.3081L2.49459 1.53987H0.769934C0.344545 1.53987 0 1.19532 0 0.769934C0 0.344545 0.344545 0 0.769934 0H3.07974C3.42524 0 3.72937 0.23098 3.82176 0.563977L5.14062 5H19.2344C19.6598 5 20.0043 5.34455 20.0043 5.76993C20.0043 5.83923 19.9947 5.90852 19.9764 5.97589Z" fill="black"></path><path d="M13.2549 18.2572C13.2549 17.2939 14.0351 16.5137 14.9984 16.5137C15.9617 16.5137 16.7419 17.2939 16.7419 18.2572C16.7419 19.2205 15.9617 20.0007 14.9984 20.0007C14.0351 20.0007 13.2549 19.2205 13.2549 18.2572Z" fill="black"></path><path d="M7.25488 18.2572C7.25488 17.2939 8.0351 16.5137 8.99839 16.5137C9.96168 16.5137 10.7419 17.2939 10.7419 18.2572C10.7419 19.2205 9.96168 20.0007 8.99839 20.0007C8.0351 20.0007 7.25488 19.2205 7.25488 18.2572Z" fill="black"></path></svg>