<svg width="18px" height="30px" viewBox="0 0 18 30" xmlns="http://www.w3.org/2000/svg"><path fill="url(#icons-gradient)" fill-rule="evenodd" d="M10,0 L8,0 C3.581726,0 0,3.581909 0,8 L0,22 C0,26.418396 3.581726,30 8,30 L10,30 C14.418274,30 18,26.418396 18,22 L18,8 C18,3.581909 14.418274,0 10,0 Z M10.004028,12.98999 C10.004028,13.542602 9.556213,13.990234 9.003906,13.990234 C8.451599,13.990234 8.003906,13.542602 8.003906,12.98999 L8.003906,5.990234 C8.003906,5.437927 8.451599,4.98999 9.003906,4.98999 C9.556213,4.98999 10.004028,5.437927 10.004028,5.990234 L10.004028,12.98999 Z" id="Shape"></path></svg>