<svg xmlns="http://www.w3.org/2000/svg" viewBox="0 0 137 137"><path fill="none" stroke="#fff" d="M107.843 29.144c10.48 10.48 16.252 24.414 16.252 39.236s-5.771 28.755-16.252 39.235c-10.48 10.481-24.415 16.252-39.236 16.252-14.82 0-28.754-5.77-39.235-16.252-10.48-10.48-16.251-24.414-16.251-39.235s5.77-28.755 16.251-39.236c10.481-10.481 24.415-16.252 39.235-16.252 14.821 0 28.755 5.77 39.236 16.252Z" opacity=".5" style="isolation:isolate;"></path><path fill="none" stroke="#fff" stroke-width="1.4" d="M111.255 25.732c11.392 11.392 17.665 26.537 17.665 42.648s-6.273 31.255-17.665 42.647c-11.393 11.393-26.538 17.665-42.648 17.665-16.109 0-31.254-6.272-42.647-17.665C14.568 99.635 8.296 84.49 8.296 68.38s6.272-31.256 17.664-42.648C37.353 14.34 52.498 8.067 68.607 8.067c16.11 0 31.255 6.273 42.648 17.665Z" data-name="Path"></path><path class="play-hover" fill="white" d="M108.196 28.79c-10.573-10.573-24.634-16.398-39.59-16.398S39.594 18.216 29.02 28.79C18.444 39.365 12.62 53.425 12.62 68.38c0 14.955 5.823 29.015 16.398 39.589s24.633 16.398 39.588 16.398c14.956 0 29.016-5.824 39.59-16.398 10.574-10.573 16.398-24.634 16.398-39.59s-5.824-29.015-16.399-39.589ZM56.093 89.093v-41l35 20.5-35 20.5Z"></path><path fill="white" d="M108.15 29.533c.217-.212.236-.544.044-.74-.197-.193-.528-.173-.74.043-.212.216-.228.544-.035.732.187.192.515.177.732-.035Zm7.921 10.163c.26-.157.352-.473.208-.707-.143-.233-.468-.291-.723-.129-.256.162-.35.479-.21.707.141.228.466.285.725.129Zm4.791-1.905c.424-.925 1.944-2.268 3.362-3.395 1.417-1.126 2.734-2.02 2.734-2.02s-1.387.78-3.026 1.547c-.82.384-1.7.765-2.502 1.048-.805.284-1.53.468-2.036.45-.187.47-.414.89-.65 1.255a8.17 8.17 0 0 1-.705.932c-.444.506-.788.78-.788.78s.398-.187 1.048-.358c.65-.17 1.559-.328 2.563-.24Zm.235 12.67c-.286.099-.448.383-.36.636.08.255.38.388.668.296.288-.092.456-.378.373-.64-.09-.259-.395-.39-.68-.291Zm4.541-2.45a7.73 7.73 0 0 1-1.83 1.81c-.547.389-.945.574-.945.574s.43-.088 1.1-.102a7.728 7.728 0 0 1 2.55.365c.616-.797 2.417-1.75 4.06-2.517a51.362 51.362 0 0 1 3.132-1.327s-1.532.436-3.307.8c-1.776.363-3.79.67-4.76.396Zm5.151 14.22c-.844-.11-1.576-.273-2.02-.519a7.16 7.16 0 0 1-1.146.827c-.379.22-.74.387-1.051.512a6.822 6.822 0 0 1-1.055.34s.44.014 1.097.155c.329.071.713.174 1.123.326.41.152.84.353 1.271.62.395-.319 1.09-.604 1.901-.857.81-.252 1.746-.472 2.632-.654 1.773-.364 3.352-.566 3.352-.566s-1.59.07-3.399.013a28.116 28.116 0 0 1-2.705-.196Zm-6.41 1.258c-.024-.274-.287-.472-.589-.443-.301.029-.527.27-.504.537.022.267.286.466.588.443.302-.023.528-.263.504-.537Zm-1.456 12.863c-.033.266.168.517.47.564.296.046.582-.135.616-.408.036-.272-.177-.525-.478-.565-.3-.04-.572.143-.608.409Zm5.767-.577a7.711 7.711 0 0 1-2.448.805c-.663.103-1.102.092-1.102.092s.427.113 1.034.4a7.706 7.706 0 0 1 2.115 1.463c.91-.438 2.947-.489 4.76-.441a51.768 51.768 0 0 1 3.392.209s-1.565-.293-3.316-.76c-1.752-.466-3.686-1.09-4.435-1.768Zm-9.046 12.882c-.1.248.047.543.327.657.28.115.59.002.692-.253s-.045-.549-.327-.657c-.283-.11-.593.004-.692.253Zm7.315 2.146c-.708-.477-1.288-.949-1.574-1.367-.49.13-.962.199-1.396.227a8.076 8.076 0 0 1-1.168-.012c-.67-.054-1.096-.168-1.096-.168s.387.209.912.629c.523.42 1.193 1.056 1.72 1.915.995-.21 2.978.21 4.729.677 1.749.468 3.252.992 3.252.992s-1.454-.649-3.046-1.508a28.415 28.415 0 0 1-2.333-1.385Zm-12.642 8.965c-.25-.172-.575-.132-.726.09-.155.218-.085.536.162.713.245.177.577.141.735-.083.155-.226.079-.549-.17-.72Zm4.677 2.184a7.744 7.744 0 0 1-2.547-.39c-.638-.208-1.024-.416-1.024-.416s.33.294.74.823c.41.53.903 1.298 1.225 2.264 1.008.02 2.848.896 4.442 1.758a51.415 51.415 0 0 1 2.932 1.723s-1.263-.97-2.613-2.178-2.797-2.643-3.155-3.584Zm-13.905 7.435c-.202.178-.203.508-.004.736.2.228.528.265.734.083.205-.183.208-.51.003-.736-.203-.222-.532-.26-.733-.083Zm4.785 3.268a7.605 7.605 0 0 1-2.39-.955 6.833 6.833 0 0 1-.904-.641s.252.36.533.97a8.238 8.238 0 0 1 .577 1.759c.045.231.08.473.102.725.247.063.53.19.84.365.307.172.639.392.983.64a28.167 28.167 0 0 1 2.103 1.716 51.173 51.173 0 0 1 2.463 2.344s-1.009-1.23-2.047-2.711c-1.036-1.48-2.123-3.21-2.26-4.212ZM94.66 116.72c-.233.132-.313.446-.172.714.141.267.455.386.694.25.24-.132.315-.454.169-.718-.147-.265-.457-.375-.691-.246Zm3.902 4.284a7.668 7.668 0 0 1-2.106-1.484c-.478-.47-.73-.83-.73-.83s.162.409.296 1.07c.132.657.23 1.563.087 2.57.894.468 2.15 2.075 3.194 3.557a51.135 51.135 0 0 1 1.855 2.846s-.698-1.43-1.369-3.114c-.67-1.685-1.322-3.606-1.227-4.615Zm-12.937 5.487a7.578 7.578 0 0 1-1.7-1.93 6.826 6.826 0 0 1-.518-.981s.063.435.038 1.106c-.026.67-.138 1.588-.514 2.523.762.675 1.605 2.516 2.273 4.201a51.219 51.219 0 0 1 1.14 3.203s-.344-1.554-.602-3.344c-.257-1.788-.445-3.82-.117-4.778Zm-2.512-4.016c.265-.07.415-.362.334-.654-.081-.292-.357-.474-.616-.406-.259.068-.408.362-.334.655.075.294.351.475.616.405Zm-12.84 3.006s-.04.439-.219 1.088c-.179.646-.5 1.5-1.08 2.334.588.82.986 2.82 1.249 4.615.261 1.79.373 3.376.373 3.376s.022-1.592.181-3.396c.16-1.806.445-3.817.986-4.672a7.71 7.71 0 0 1-1.212-2.275c-.215-.636-.279-1.07-.279-1.07Zm-.033-1.142c.274-.01.488-.264.476-.567-.012-.302-.239-.54-.508-.53-.268.013-.482.256-.476.56.005.301.233.55.508.537Zm-12.751-2.192c-.262-.056-.527.14-.59.435-.064.296.102.582.37.64.268.058.533-.142.591-.44.057-.297-.11-.578-.371-.635Zm-.449 2.194s-.137.417-.459 1.007c-.16.294-.368.632-.63.982a7.009 7.009 0 0 1-.955 1.048c.192.474.271 1.21.283 2.06.013.851-.041 1.811-.118 2.713-.154 1.805-.407 3.377-.407 3.377s.384-1.545.95-3.262c.568-1.718 1.305-3.623 2.025-4.33a7.65 7.65 0 0 1-.662-2.486c-.064-.67-.027-1.109-.027-1.109Zm-11.638-6.187c-.245-.109-.545.015-.676.288-.13.273-.038.594.212.706.249.114.553-.017.678-.293.125-.275.03-.59-.214-.7Zm-.948 2.03s-.231.374-.682.875a7.669 7.669 0 0 1-2.013 1.6c.156.997-.386 2.965-.955 4.684-.57 1.717-1.181 3.186-1.181 3.186s.733-1.413 1.686-2.954c.954-1.542 2.11-3.21 2.976-3.735-.204-.991-.154-1.912-.062-2.575.093-.665.231-1.082.231-1.082ZM33.85 111.57c-.191.235-.172.565.042.737.215.171.539.117.726-.123.184-.238.166-.569-.044-.736-.209-.168-.534-.113-.724.122Zm-2.54 2.914a6.843 6.843 0 0 1-1.325.502c-.02.253-.098.555-.217.888-.117.332-.277.697-.463 1.079a28.205 28.205 0 0 1-1.333 2.365c-.953 1.54-1.89 2.827-1.89 2.827s1.042-1.204 2.324-2.48c1.28-1.273 2.801-2.64 3.764-2.946a7.608 7.608 0 0 1 .534-2.516c.246-.627.478-1.001.478-1.001s-.312.31-.865.69c-.277.19-.615.398-1.007.592Zm-6.505-12.113c-.24.187-.295.511-.123.725.172.215.502.234.737.043.235-.19.29-.515.122-.725-.168-.209-.498-.228-.736-.043Zm-4.535 2.448c-.306.962-1.674 2.483-2.946 3.764-1.276 1.282-2.48 2.323-2.48 2.323s1.288-.937 2.827-1.89c.77-.476 1.601-.959 2.365-1.332.382-.187.746-.346 1.078-.463.334-.119.636-.197.89-.217a6.832 6.832 0 0 1 .5-1.325 8.23 8.23 0 0 1 .592-1.007c.381-.554.691-.865.691-.865s-.374.231-1.001.478c-.63.248-1.501.5-2.516.534Zm-4.34-11.604c.501-.451.875-.682.875-.682s-.416.138-1.081.231c-.663.092-1.584.142-2.575-.062-.526.867-2.193 2.022-3.735 2.976-1.541.952-2.954 1.686-2.954 1.686s1.469-.612 3.185-1.18c1.72-.57 3.688-1.113 4.685-.957a7.67 7.67 0 0 1 1.6-2.012Zm1.91-1.166c.113.25.434.342.707.212.273-.132.397-.432.288-.676-.112-.244-.426-.34-.701-.214-.276.125-.407.429-.293.678ZM7.55 81.707c.851.013 1.587.092 2.06.283.334-.376.7-.693 1.049-.955.35-.261.687-.469.982-.63a6.79 6.79 0 0 1 1.007-.459s-.438.038-1.11-.026a7.65 7.65 0 0 1-2.484-.662c-.708.72-2.613 1.457-4.331 2.025-1.717.566-3.262.95-3.262.95s1.572-.253 3.377-.407a28.264 28.264 0 0 1 2.712-.119Zm6.657-2.58c-.298.057-.498.323-.44.59.057.269.343.435.64.371.295-.063.49-.328.435-.59-.057-.262-.338-.429-.635-.371ZM8.085 68.013a7.712 7.712 0 0 1 2.333-1.08c.65-.18 1.089-.218 1.089-.218s-.435-.064-1.07-.28a7.71 7.71 0 0 1-2.275-1.211c-.855.54-2.866.825-4.672.986-1.805.16-3.397.18-3.397.18s1.587.112 3.377.374c1.794.263 3.794.661 4.615 1.25Zm4.564-1.266c-.013.275.236.503.537.508.304.005.547-.208.56-.477.01-.268-.228-.496-.53-.508-.303-.011-.557.202-.567.477Zm2.923-12.591c.068-.26-.114-.535-.405-.616-.292-.081-.585.068-.655.333-.07.266.112.541.405.616.294.075.587-.074.655-.333Zm-5.793-.1c.934-.377 1.853-.489 2.522-.514a6.804 6.804 0 0 1 1.107.037s-.409-.161-.98-.517a7.576 7.576 0 0 1-1.931-1.7c-.958.328-2.99.14-4.778-.117-1.791-.258-3.345-.603-3.345-.603s1.52.474 3.203 1.14c1.686.669 3.526 1.512 4.202 2.274Zm10.488-11.73c.13-.234.02-.543-.245-.69-.265-.147-.587-.071-.72.169-.134.238-.016.552.251.693.269.142.582.062.714-.171Zm-5.61-1.448a7.683 7.683 0 0 1 2.57.086c.661.134 1.07.297 1.07.297s-.36-.253-.83-.73a7.667 7.667 0 0 1-1.484-2.107c-1.008.095-2.93-.556-4.615-1.227a51.3 51.3 0 0 1-3.114-1.368s1.367.815 2.846 1.855c1.482 1.043 3.09 2.3 3.558 3.194Zm12.943-8.98c.178-.2.14-.53-.083-.733-.225-.205-.553-.202-.736.003-.182.206-.145.535.083.734.228.2.558.198.736-.003Zm-3.268-4.784c-1.002-.138-2.733-1.225-4.212-2.26-1.48-1.039-2.712-2.048-2.712-2.048s1.143 1.109 2.344 2.463a28.18 28.18 0 0 1 1.716 2.103c.25.345.469.677.64.984.175.309.303.593.366.839a6.964 6.964 0 0 1 1.391.268c.42.125.788.272 1.093.412.61.28.97.533.97.533s-.291-.33-.64-.905a7.606 7.606 0 0 1-.956-2.39Zm12.167-4.615c-.224.158-.26.49-.084.736.178.246.496.316.715.161.22-.151.26-.477.09-.726-.172-.25-.495-.326-.721-.17Zm-1.464-4.506c-.941-.358-2.376-1.804-3.585-3.154-1.208-1.351-2.178-2.614-2.178-2.614s.86 1.338 1.723 2.932c.863 1.595 1.74 3.434 1.76 4.442a7.726 7.726 0 0 1 2.263 1.226c.529.41.823.74.823.74s-.209-.387-.416-1.024a7.744 7.744 0 0 1-.39-2.548Zm12.89-1.67c-.254.103-.367.412-.253.692.115.28.41.428.658.328.249-.1.362-.41.253-.692-.109-.283-.403-.43-.658-.327Zm-.374-4.72c-.418-.287-.89-.867-1.367-1.575a28.414 28.414 0 0 1-1.386-2.333c-.859-1.592-1.508-3.046-1.508-3.046s.525 1.503.992 3.252c.467 1.751.887 3.733.677 4.73.86.526 1.496 1.196 1.916 1.719.42.525.629.912.629.912s-.114-.425-.169-1.096a8.092 8.092 0 0 1-.011-1.169c.028-.433.096-.905.227-1.395Zm12.927 1.375c-.272.034-.453.32-.407.616.046.301.298.503.564.47.266-.036.449-.309.409-.609-.04-.3-.294-.514-.566-.477ZM58.683.546s.041.396.087 1.017c.047.623.098 1.468.123 2.375.047 1.812-.003 3.85-.442 4.76a7.706 7.706 0 0 1 1.464 2.114c.286.608.4 1.035.4 1.035s-.012-.44.092-1.102a7.711 7.711 0 0 1 .804-2.448c-.677-.749-1.301-2.684-1.768-4.435-.466-1.751-.76-3.316-.76-3.316Zm14.815 12.062c-.274-.023-.515.203-.537.504-.023.302.175.566.443.589.267.023.508-.203.537-.505.029-.301-.17-.564-.443-.588Zm1.06-9.116c-.056-1.808.014-3.399.014-3.399s-.203 1.58-.567 3.352a28.127 28.127 0 0 1-.654 2.632c-.253.812-.538 1.507-.856 1.901.266.432.468.861.62 1.271.151.41.254.795.325 1.123.141.658.155 1.097.155 1.097s.089-.43.34-1.054c.126-.312.293-.673.513-1.052.219-.377.49-.767.826-1.146-.246-.443-.408-1.176-.52-2.02-.11-.841-.168-1.8-.196-2.705Zm11.77 6.982c.318.968.38 1.879.366 2.55-.014.67-.102 1.1-.102 1.1s.185-.398.573-.945a7.73 7.73 0 0 1 1.811-1.83c-.273-.97.034-2.985.397-4.76.364-1.776.8-3.307.8-3.307s-.563 1.49-1.328 3.132c-.766 1.643-1.72 3.444-2.516 4.06Zm-.095 4.735c-.261-.083-.548.084-.64.373-.092.288.041.587.296.668.253.088.538-.074.636-.36.098-.287-.033-.592-.292-.681Zm11.187 6.43c.228.141.544.047.706-.208.162-.256.105-.58-.129-.724-.233-.144-.55-.05-.706.208-.157.26-.1.584.129.725Zm1.776-5.515c.089 1.005-.07 1.914-.24 2.563-.17.65-.357 1.048-.357 1.048s.273-.344.78-.787c.253-.222.566-.47.932-.706a7.24 7.24 0 0 1 1.255-.65c-.019-.506.166-1.23.45-2.035.283-.803.664-1.683 1.048-2.502a51.182 51.182 0 0 1 1.547-3.026s-.894 1.316-2.02 2.734c-1.128 1.417-2.47 2.937-3.395 3.361Zm15.286 5.988c-1.422 1.123-3.084 2.302-4.074 2.493a7.746 7.746 0 0 1-.82 2.442c-.314.592-.585.937-.585.937s.344-.272.937-.586a7.747 7.747 0 0 1 2.441-.82c.192-.99 1.37-2.651 2.494-4.074a51.27 51.27 0 0 1 2.201-2.594s-1.172 1.078-2.594 2.202Z"></path><path class="play-icon" d="m91.093 68.593-35-20.5v41l35-20.5z" fill="white"></path></svg>