<svg xmlns="http://www.w3.org/2000/svg" width="26" height="26" viewBox="0 0 26 26" data-v-860a47a2=""><path fill="yellow" fill-rule="evenodd" d="M20.9199662,1 L14.0712594,8.70392323 L8.06329337,1 L0,1 L9.97850217,13.7953307 L0.996225313,23.8991718 L1.11538496,24 L4.02384597,24 L11.4352054,15.6632226 L17.9367066,24 L26,24 L15.5279626,10.5718151 L24.0372215,1 L20.9199662,1 Z M4.8116302,3.42300695 L7.03089039,3.42300695 L21.1201945,21.4895473 L18.9009048,21.4895473 L4.8116302,3.42300695 Z"></path><path class="hover" fill="red" fill-rule="evenodd" d="M20.9199662,1 L14.0712594,8.70392323 L8.06329337,1 L0,1 L9.97850217,13.7953307 L0.996225313,23.8991718 L1.11538496,24 L4.02384597,24 L11.4352054,15.6632226 L17.9367066,24 L26,24 L15.5279626,10.5718151 L24.0372215,1 L20.9199662,1 Z M4.8116302,3.42300695 L7.03089039,3.42300695 L21.1201945,21.4895473 L18.9009048,21.4895473 L4.8116302,3.42300695 Z"></path></svg>