<svg xmlns="http://www.w3.org/2000/svg" width="110" height="110" viewBox="0 0 110 110"><g fill="none"><path fill="#FFF" d="M96.668149,110 L13.3326984,110 C5.98109319,110 0,104.015098 0,96.6615489 L0,13.3315495 C0,5.98144271 5.98109319,0 13.3326984,0 L96.668149,0 C104.019754,0 110,5.98144271 110,13.3315495 L110,96.6615312 C110,104.015098 104.019754,110 96.668149,110 Z"/><path fill="#ED1C24" d="M104.999397,96.6700038 C104.999397,101.251751 101.249938,105.004418 96.6677959,105.004418 L13.3374823,105.004418 C8.75022046,105.004418 5.00058495,101.251751 5.00058495,96.6700038 L5.00058495,13.334003 C5.00058495,8.75225535 8.75022046,5.00047177 13.3374823,5.00047177 L96.6677959,5.00047177 C101.249938,5.00047177 104.999397,8.75225535 104.999397,13.334003 L104.999397,96.6700038 Z"/><path fill="#000" d="M96.668149,4.47144469 L13.3378706,4.47144469 C8.44886917,4.47144469 4.47094739,8.44642895 4.47094739,13.333297 L4.47094739,82.1871484 L4.39078593,82.1871484 L4.39078593,96.6701803 C4.39078593,101.557031 8.36697774,105.533745 13.2542669,105.533745 L13.3378706,105.533745 L96.5871225,105.533745 L96.668149,105.533745 C101.554573,105.533745 105.529035,101.557031 105.529035,96.6701803 L105.529035,13.3332793 C105.529035,8.44642895 101.554573,4.47144469 96.668149,4.47144469 Z M5.52942813,13.3332793 C5.52942813,9.0307752 9.03241844,5.52981657 13.3378706,5.52981657 L96.668149,5.52981657 C100.970159,5.52981657 104.470554,9.0307752 104.470554,13.3332793 L104.470554,82.1871307 L5.52942813,82.1871307 L5.52942813,13.3332793 Z"/><path fill="#FFF" d="M18.637565 98.7178899 16.2147154 93.8689192 14.0330034 93.8689192 14.0330034 98.7178899 12.2867864 98.7178899 12.2867864 87.2032592 16.7490663 87.2032592C18.9307783 87.2032592 20.3202318 88.6097147 20.3202318 90.5697149 20.3202318 92.2158751 19.3186108 93.2655978 18.0230703 93.6225071L20.6761126 98.7178899 18.637565 98.7178899 18.637565 98.7178899ZM16.6163171 88.7752839 14.0330034 88.7752839 14.0330034 92.3812677 16.6163171 92.3812677C17.7826389 92.3812677 18.5747209 91.7159903 18.5747209 90.5868367 18.5747209 89.454347 17.7826389 88.7752839 16.6163171 88.7752839ZM22.4733462 98.7178899 22.4733462 87.2032592 29.8292764 87.2032592 29.8292764 88.7752839 24.2188571 88.7752839 24.2188571 92.1383859 29.0025948 92.1383859 29.0025948 93.6913471 24.2188571 93.6913471 24.2188571 97.1492366 29.8292764 97.1492366 29.8292764 98.7178899 22.4733462 98.7178899ZM34.8734285 98.8127127C33.1425518 98.8127127 31.8989283 98.4111456 30.7998284 97.29576L31.9652676 96.1477195C32.8037765 96.9872153 33.7279017 97.2440241 34.9053448 97.2440241 36.409365 97.2440241 37.2826501 96.5994163 37.2826501 95.4824244 37.2826501 94.9825573 37.138603 94.563692 36.8291491 94.2913324 36.5412316 94.0154426 36.2490774 93.898238 35.5715622 93.8000968L34.2105298 93.6103453C33.2745773 93.4811378 32.5280395 93.15706 32.0281116 92.6882238 31.4626918 92.1555253 31.1867782 91.4229964 31.1867782 90.486948 31.1867782 88.4856437 32.6426063 87.110078 35.0372113 87.110078 36.5585314 87.110078 37.6214077 87.4962884 38.609083 88.4201397L37.4946604 89.5200098C36.7827222 88.8390227 35.9560406 88.6270306 34.9854886 88.6270306 33.6304581 88.6270306 32.8840969 89.4026287 32.8840969 90.4232268 32.8840969 90.8454282 33.0159634 91.2161055 33.3201215 91.4918364 33.6131583 91.750428 34.0813111 91.9400029 34.6156973 92.0263001L35.9276372 92.2158927C36.9929849 92.3812854 37.5928278 92.6398769 38.0747497 93.0760405 38.7065442 93.6225247 39.0133502 94.4480583 39.0133502 95.4358427 39.0133502 97.5543339 37.2826501 98.8127127 34.8734285 98.8127127ZM44.8505905 88.7752839 44.8505905 98.7178899 43.1050797 98.7178899 43.1050797 88.7752839 39.9356924 88.7752839 39.9356924 87.2032592 48.0199779 87.2032592 48.0199779 88.7752839 44.8505905 88.7752839ZM55.961099 98.7178899 53.5356015 93.8689192 51.3505531 93.8689192 51.3505531 98.7178899 49.6050069 98.7178899 49.6050069 87.2032592 54.0665807 87.2032592C56.2507641 87.2032592 57.6435716 88.6097147 57.6435716 90.5697149 57.6435716 92.2158751 56.6385965 93.2655978 55.3474693 93.6225071L57.996981 98.7178899 55.961099 98.7178899 55.961099 98.7178899ZM53.9407337 88.7752839 51.3505531 88.7752839 51.3505531 92.3812677 53.9407337 92.3812677C55.1026423 92.3812677 55.895607 91.7159903 55.895607 90.5868367 55.895607 89.454347 55.1026423 88.7752839 53.9407337 88.7752839ZM59.791602 98.7178899 59.791602 87.2032592 61.5362479 87.2032592 61.5362479 98.7178899 59.791602 98.7178899ZM67.859488 98.8127127C66.6648864 98.8127127 65.62886 98.3765491 64.8358954 97.5836527 63.7015252 96.4529105 63.7186337 95.1772511 63.7186337 92.9639548 63.7186337 90.7455395 63.7015252 89.4716453 64.8358954 88.3391379 65.62886 87.5480067 66.6649041 87.110078 67.859488 87.110078 69.9781442 87.110078 71.5625025 88.3511408 71.9640865 90.6472218L70.1868005 90.6472218C69.9144175 89.4854133 69.1369873 88.6787489 67.8594704 88.6787489 67.182114 88.6787489 66.5665602 88.9373228 66.1631933 89.3733099 65.5960082 89.9870632 65.4650242 90.6472218 65.4650242 92.9639548 65.4650242 95.2755689 65.5960082 95.9357274 66.1631933 96.5494631 66.5665602 96.9872153 67.182114 97.2440241 67.8594704 97.2440241 69.1369873 97.2440241 69.929952 96.4355946 70.2041003 95.2755689L71.9640865 95.2755689C71.5798022 97.5663368 69.9437389 98.8127127 67.859488 98.8127127ZM77.4652348 88.7752839 77.4652348 98.7178899 75.7206066 98.7178899 75.7206066 88.7752839 72.5503366 88.7752839 72.5503366 87.2032592 80.6355047 87.2032592 80.6355047 88.7752839 77.4652348 88.7752839ZM82.2196688 98.7178899 82.2196688 87.2032592 89.5755989 87.2032592 89.5755989 88.7752839 83.9660623 88.7752839 83.9660623 92.1383859 88.7482112 92.1383859 88.7482112 93.6913471 83.9660623 93.6913471 83.9660623 97.1492366 89.5755989 97.1492366 89.5755989 98.7178899 82.2196688 98.7178899ZM98.5829504 97.635371C97.8554776 98.3594273 96.8056644 98.7179075 95.6110981 98.7179075L91.5650717 98.7179075 91.5650717 87.2032769 95.6110981 87.2032769C96.8056644 87.2032769 97.8554776 87.5582445 98.5829504 88.2874196 99.8258854 89.5371316 99.744859 91.2161055 99.744859 92.8813467 99.744859 94.5499063 99.8258854 96.3925254 98.5829504 97.635371ZM97.3848535 89.550882C96.9022254 89.0201074 96.2540315 88.7752839 95.4299802 88.7752839L93.3113064 88.7752839 93.3113064 97.1492366 95.4299802 97.1492366C96.2540315 97.1492366 96.9022254 96.9097085 97.3848535 96.3752271 97.9813423 95.7117148 97.998642 94.4653566 97.998642 92.881329 97.998642 91.297125 97.9813423 90.211217 97.3848535 89.550882ZM74.9498844 51.4438634 74.9498844 36.7969921 71.8677021 39.5128209 71.8677021 37.6123056 74.9498844 34.9483716 76.6221361 34.9483716 76.6221361 51.4438634 74.9498844 51.4438634ZM87.2105094 50.3819613C86.4466366 51.1455565 85.3779348 51.607491 83.9194588 51.607491 82.4834019 51.607491 81.3250592 51.1455565 80.6062011 50.4276781 79.888967 49.6812047 79.5390881 48.734036 79.4458812 47.5515755L81.1146023 47.5515755C81.3250592 49.1995008 82.1801265 50.1269 83.9194588 50.1269 84.7297233 50.1269 85.4727305 49.8476565 85.9589245 49.3597746 86.8173458 48.5047456 86.862184 47.1835459 86.862184 46.0010854 86.862184 43.9860131 86.4690733 41.993358 84.0797465 41.993358 82.6454901 41.993358 81.6749028 42.6422197 81.347443 43.6153358L79.8423635 43.6153358 79.8423635 34.9483716 88.1861455 34.9483716 88.1861455 36.4298451 81.347443 36.4298451 81.347443 41.6692801C81.9956545 40.9487365 83.0179646 40.53236 84.3125872 40.53236 85.5415765 40.53236 86.5156591 40.9254544 87.1638706 41.5744927 88.3706174 42.7802529 88.5309227 44.4452999 88.5309227 46.0010854 88.5309227 47.6463453 88.3930365 49.1994831 87.2105094 50.3819613ZM96.2937503 46.0243675 96.2937503 50.1009173 94.7438327 50.1009173 94.7438327 46.0243675 90.6669492 46.0243675 90.6669492 44.4676994 94.7438327 44.4676994 94.7438327 40.4375548 96.2937503 40.4375548 96.2937503 44.4676994 100.350015 44.4676994 100.350015 46.0243675 96.2937503 46.0243675ZM35.7060767 54.9059892 35.7060767 42.2371224 31.5488376 50.4793964 28.681137 50.4793964 24.5006138 42.2371224 24.5006138 54.9059892 20.2485613 54.9059892 20.2485613 33.1599419 24.4317678 33.1599419 30.1163112 44.9245327 35.7664493 33.1599419 39.9529921 33.1599419 39.9529921 54.9059892 35.7060767 54.9059892ZM55.9817528 54.9059892 54.6983927 51.0594005 46.9726713 51.0594005 45.6599723 54.9059892 41.2303502 54.9059892 49.1430503 33.1599419 52.4702538 33.1599419 60.4122575 54.9059892 55.9817528 54.9059892ZM50.9083323 39.5765421 48.1638483 47.491208 53.5700245 47.491208 50.9083323 39.5765421ZM55.3215373 21.378053 23.9489455 21.378053 9.9354308 43.8566291 23.9489455 66.3440309 55.7146656 66.3440309 69.7248262 43.8566291 55.7146656 21.378053 55.3215373 21.378053ZM54.9337048 22.782002C55.3242029 23.4137596 67.6285539 43.150736 68.0663438 43.8566114 67.6285539 44.5660171 55.3242205 64.2996221 54.9337048 64.9304972 54.1811651 64.9304972 25.482446 64.9304972 24.7248046 64.9304972 24.3343065 64.2996221 12.0401765 44.5660171 11.5919714 43.8566114 12.0401765 43.150736 24.3343065 23.4137596 24.7248046 22.782002 25.482446 22.782002 54.1811651 22.782002 54.9337048 22.782002Z"/></g></svg>