<svg id="Layer_1_copy" data-name="Layer 1 copy" xmlns="http://www.w3.org/2000/svg" xmlns:xlink="http://www.w3.org/1999/xlink" version="1.1" viewBox="0 0 18 18">
    <defs>
        <style>
            .cls-1 {
            fill: url(#linear-gradient);
            }

            .cls-1, .cls-2 {
            stroke-width: 0px;
            }

            .cls-2 {
            fill: #c19976;
            fill-rule: evenodd;
            }
        </style>
        <linearGradient id="linear-gradient" x1="0" y1="9" x2="596.944" y2="9" gradientUnits="userSpaceOnUse">
            <stop offset="0" stop-color="#c19976"/>
            <stop offset=".302" stop-color="#ffe8d4"/>
            <stop offset=".503" stop-color="#ffe8d4"/>
            <stop offset=".699" stop-color="#ffe8d4"/>
            <stop offset="1" stop-color="#c19976"/>
        </linearGradient>
    </defs>
    <path class="cls-1" d="M1,13.965c3.359-.238,6.503-1.67,8.899-4.065,2.395-2.396,3.828-5.54,4.065-8.899h4.036V0h-4.992l-.018.482c-.12,3.287-1.469,6.38-3.799,8.71-2.331,2.33-5.424,3.679-8.71,3.799l-.481.018v4.991h1v-4.035Z"/>
    <path id="Fill-1-Copy" class="cls-2" d="M15.76,16.793c-.335.306-.877.272-1.232-.099-.351-.367-.376-.937-.034-1.25.339-.316.893-.268,1.239.107.345.376.358.933.027,1.241ZM11.623,12.998c.984.563,1.551,1.042,1.551,1.042,0,0-.44-.596-.94-1.614-.497-1.016-1.059-2.465-1.263-4.169-1.657-.377-4.385-2.442-6.722-4.41C1.917,1.879,0,0,0,0c0,0,1.753,2.033,3.568,4.486,1.82,2.461,3.722,5.329,3.999,7.014,1.682.303,3.077.941,4.057,1.498Z"/>
</svg>