<?xml version="1.0" encoding="UTF-8"?>
<svg id="Layer_1_copy" data-name="Layer 1 copy" xmlns="http://www.w3.org/2000/svg" version="1.1" viewBox="0 0 30 6">
  <defs>
    <style>
      .cls-1 {
        fill: #553c22;
      }

      .cls-1, .cls-2 {
        fill-rule: evenodd;
        stroke-width: 0px;
      }

      .cls-2 {
        fill: #896d51;
      }
    </style>
  </defs>
  <path class="cls-2" d="M0,3s.72789-1.23024,1.68711-1.96798c.8609-.66212,1.80519-1.03202,3.19603-1.03202h25.11687v1H11.23794s-.95581-.07963-1.59543.54288c-.61807.60154-.80572,1.4736-.80572,1.4736,0,0-.28789-1.65585-1.51156-1.96277-1.105-.27715-2.09687.34289-2.6962,1.06095-.37146.44505-.62903.88534-.62903.88534H0Z"/>
  <path class="cls-1" d="M0,3s.72789,1.23024,1.68711,1.96798c.8609.66212,1.80519,1.03202,3.19603,1.03202h25.11687v-1H11.23794s-.95581.07963-1.59543-.54288c-.61807-.60154-.80572-1.4736-.80572-1.4736,0,0-.28789,1.65585-1.51156,1.96277-1.105.27715-2.09687-.34289-2.6962-1.06095-.37146-.44505-.62903-.88534-.62903-.88534H0Z"/>
</svg>