<svg xmlns="http://www.w3.org/2000/svg" width="30" height="31" xml:space="preserve"><path fill="url(#icons-gradient)" fill-rule="nonzero" d="M14.29 18.724c-.105 0-.218-.069-.287-.308-.136-.472.069-1.666.316-2.248 0 0 .205-.557.634-.558.428 0 .634.558.634.558.247.582.451 1.776.315 2.248-.069.24-.182.308-.286.308a.353.353 0 0 1-.229-.101c-.218-.224-.117-1.252-.434-1.276h-.001c-.317.024-.216 1.052-.434 1.276a.353.353 0 0 1-.229.101m-2.354-2.799c-.612 0-1.413-.285-1.7-1.1-.151-.496-.151-1.07.356-1.707 0 0 .483-.587.978-.65a.982.982 0 0 1 .124-.008c.489 0 1.153.33 1.638.923.41.502.707 1.316.484 1.825-.19.436-1.142.676-1.764.714a1.829 1.829 0 0 1-.116.003m6.036 0a1.83 1.83 0 0 1-.116-.003c-.622-.038-1.574-.278-1.765-.714-.223-.51.074-1.323.484-1.825.486-.593 1.15-.923 1.638-.923.043 0 .085.003.125.008.495.063.977.65.977.65.508.637.508 1.21.356 1.708-.287.814-1.088 1.1-1.7 1.1M24.027 0c-.22 0-.22.2-.22.774s.264 2.566-.837 3.517c-1.391.73-1.549 1.4-2.042 1.4a.604.604 0 0 1-.094-.007c-.528-.11-1.497-1.415-1.673-1.77-.177-.353-.463-.796-1.278-1.083-.814-.288-1.607-.641-1.96-.929-.351-.287-.575-.473-.969-.502h-.001c-.394.029-.617.215-.969.502-.352.288-1.145.641-1.96.929-.815.287-1.101.73-1.277 1.084-.176.354-1.145 1.658-1.674 1.769a.604.604 0 0 1-.093.007c-.494 0-.651-.67-2.043-1.4C5.836 3.34 6.1 1.349 6.1.774S6.1 0 5.88 0s-.528.398-1.233 1.592-1.035 2.101-.749 4.092c-.925.354-1.497.796-1.497.796s.506.288 1.321.796c.066.487-.286 1.018-.286 1.018l1.63.508s1.607 1.239 1.915 2.013c-1.49-.644-4.611-.664-4.984-.664H1.96S1.19 9.4.75 9.001C.391 8.68.294 8.618.142 8.618c-.036 0-.075.003-.121.007-.22 2.433 1.299 3.738 2.048 4.136.11.376.308.509.484.597.176.089 1.85.531 2.599.73.256.068.42.1.54.1.23 0 .3-.118.56-.321 1.454.066 2.4.597 2.621 1.216-.308.332-.33.73-.11 1.283.352.752.903.663 1.321.708.419.044.793.73.309 1.172-.485.442-1.278.752-2.599 1.305a4.274 4.274 0 0 0 1.701.353c.646 0 1.136-.15 1.272-.287-.095-.415.13-.473.264-.473.05 0 .088.009.088.009l.02-.001c.287 0 .702.446.705 1.482.003 1.54-1.253 1.637-1.253 1.637s-.77-.83-1.698-.83c-.065 0-.13.003-.196.012-1.013.132-1.828.597-2.356 1.172a3.54 3.54 0 0 1-.129.002c-1.14 0-1.324-.575-1.303-1.13.022-.575.287-1.504 1.322-1.99 1.035-.487 1.717-.84 2.026-1.46.506-1.371-.265-2.057-.661-2.433-.238-.225-.578-.395-.898-.395a.733.733 0 0 0-.578.262c-.336.395-.244.742-.1.742a.12.12 0 0 0 .078-.034c.177-.155.11-.354.507-.398a.74.74 0 0 1 .815.73c0 .464-.198.73-1.762 1.504-1.586.774-2.885 1.725-2.907 3.76s1.167 2.61 2.246 3.052c-.396.619-.506 1.902-.308 2.477.626 1.886 2.1 3.518 4.773 3.518.053 0 .106 0 .16-.002 2.774-.066 3.986-1.57 4.052-2.809.059-1.11-.536-2.468-1.706-2.468-.136 0-.28.018-.43.058-1.454.376-1.344 1.592-1.19 1.813.044.062.09.09.133.09.112 0 .216-.177.264-.4.066-.31.396-.64.947-.663a.75.75 0 0 1 .026 0c.544 0 1.158.676.855 1.46-.383.883-1.445 1.6-2.699 1.6-.19 0-.385-.017-.582-.052-2.687-.531-2.29-3.384-1.982-4.357.352-.022 1.079-.11 1.717-.354.685.131 1.338.235 2.003.235.683 0 1.379-.11 2.137-.412 1.46-.582 1.77-2.17 1.785-2.249.014.08.324 1.667 1.784 2.25a5.63 5.63 0 0 0 2.138.411c.665 0 1.317-.104 2.002-.235.639.243 1.366.332 1.718.354.308.973.705 3.826-1.982 4.357a3.339 3.339 0 0 1-.583.051c-1.253 0-2.316-.716-2.698-1.6-.304-.783.31-1.46.855-1.46l.026.001c.55.022.88.354.947.663.047.223.151.4.263.4.044 0 .09-.028.133-.09.154-.221.264-1.437-1.19-1.813a1.716 1.716 0 0 0-.43-.058c-1.17 0-1.764 1.358-1.705 2.468.066 1.239 1.277 2.743 4.052 2.809l.16.002c2.673 0 4.146-1.632 4.772-3.518.199-.575.089-1.858-.308-2.477 1.08-.443 2.268-1.018 2.246-3.052-.022-2.035-1.321-2.986-2.907-3.76-1.563-.774-1.761-1.04-1.761-1.504a.74.74 0 0 1 .815-.73c.396.044.33.243.506.398a.12.12 0 0 0 .079.034c.143 0 .236-.347-.101-.742a.733.733 0 0 0-.578-.262c-.32 0-.66.17-.897.395-.397.376-1.167 1.062-.661 2.433.308.62.99.973 2.026 1.46 1.035.486 1.3 1.415 1.321 1.99.021.555-.162 1.13-1.303 1.13-.041 0-.084 0-.128-.002-.529-.575-1.343-1.04-2.356-1.172a1.502 1.502 0 0 0-.197-.013c-.928 0-1.697.831-1.697.831s-1.257-.098-1.253-1.637c.002-1.036.418-1.482.704-1.482h.02s.038-.008.089-.008c.133 0 .359.058.264.473.136.137.626.287 1.271.287.504 0 1.103-.091 1.701-.353-1.32-.553-2.114-.863-2.598-1.305-.485-.442-.11-1.128.308-1.172.419-.045.97.044 1.322-.708.22-.553.198-.951-.11-1.283.22-.619 1.167-1.15 2.62-1.216.26.203.33.321.561.321.12 0 .284-.032.54-.1.749-.199 2.422-.641 2.598-.73.177-.088.375-.22.485-.597.749-.398 2.268-1.703 2.048-4.136a1.345 1.345 0 0 0-.121-.007c-.153 0-.25.061-.606.383-.44.398-1.211 1.15-1.211 1.15h-.037c-.372 0-3.494.02-4.984.664.309-.774 1.916-2.013 1.916-2.013l1.63-.508s-.353-.531-.287-1.018c.815-.508 1.322-.796 1.322-.796s-.573-.442-1.498-.796c.286-1.99-.044-2.897-.749-4.092C24.555.398 24.246 0 24.026 0"></path><path class="hover" fill="url(#icons-gradient-white)" fill-rule="nonzero" d="M14.29 18.724c-.105 0-.218-.069-.287-.308-.136-.472.069-1.666.316-2.248 0 0 .205-.557.634-.558.428 0 .634.558.634.558.247.582.451 1.776.315 2.248-.069.24-.182.308-.286.308a.353.353 0 0 1-.229-.101c-.218-.224-.117-1.252-.434-1.276h-.001c-.317.024-.216 1.052-.434 1.276a.353.353 0 0 1-.229.101m-2.354-2.799c-.612 0-1.413-.285-1.7-1.1-.151-.496-.151-1.07.356-1.707 0 0 .483-.587.978-.65a.982.982 0 0 1 .124-.008c.489 0 1.153.33 1.638.923.41.502.707 1.316.484 1.825-.19.436-1.142.676-1.764.714a1.829 1.829 0 0 1-.116.003m6.036 0a1.83 1.83 0 0 1-.116-.003c-.622-.038-1.574-.278-1.765-.714-.223-.51.074-1.323.484-1.825.486-.593 1.15-.923 1.638-.923.043 0 .085.003.125.008.495.063.977.65.977.65.508.637.508 1.21.356 1.708-.287.814-1.088 1.1-1.7 1.1M24.027 0c-.22 0-.22.2-.22.774s.264 2.566-.837 3.517c-1.391.73-1.549 1.4-2.042 1.4a.604.604 0 0 1-.094-.007c-.528-.11-1.497-1.415-1.673-1.77-.177-.353-.463-.796-1.278-1.083-.814-.288-1.607-.641-1.96-.929-.351-.287-.575-.473-.969-.502h-.001c-.394.029-.617.215-.969.502-.352.288-1.145.641-1.96.929-.815.287-1.101.73-1.277 1.084-.176.354-1.145 1.658-1.674 1.769a.604.604 0 0 1-.093.007c-.494 0-.651-.67-2.043-1.4C5.836 3.34 6.1 1.349 6.1.774S6.1 0 5.88 0s-.528.398-1.233 1.592-1.035 2.101-.749 4.092c-.925.354-1.497.796-1.497.796s.506.288 1.321.796c.066.487-.286 1.018-.286 1.018l1.63.508s1.607 1.239 1.915 2.013c-1.49-.644-4.611-.664-4.984-.664H1.96S1.19 9.4.75 9.001C.391 8.68.294 8.618.142 8.618c-.036 0-.075.003-.121.007-.22 2.433 1.299 3.738 2.048 4.136.11.376.308.509.484.597.176.089 1.85.531 2.599.73.256.068.42.1.54.1.23 0 .3-.118.56-.321 1.454.066 2.4.597 2.621 1.216-.308.332-.33.73-.11 1.283.352.752.903.663 1.321.708.419.044.793.73.309 1.172-.485.442-1.278.752-2.599 1.305a4.274 4.274 0 0 0 1.701.353c.646 0 1.136-.15 1.272-.287-.095-.415.13-.473.264-.473.05 0 .088.009.088.009l.02-.001c.287 0 .702.446.705 1.482.003 1.54-1.253 1.637-1.253 1.637s-.77-.83-1.698-.83c-.065 0-.13.003-.196.012-1.013.132-1.828.597-2.356 1.172a3.54 3.54 0 0 1-.129.002c-1.14 0-1.324-.575-1.303-1.13.022-.575.287-1.504 1.322-1.99 1.035-.487 1.717-.84 2.026-1.46.506-1.371-.265-2.057-.661-2.433-.238-.225-.578-.395-.898-.395a.733.733 0 0 0-.578.262c-.336.395-.244.742-.1.742a.12.12 0 0 0 .078-.034c.177-.155.11-.354.507-.398a.74.74 0 0 1 .815.73c0 .464-.198.73-1.762 1.504-1.586.774-2.885 1.725-2.907 3.76s1.167 2.61 2.246 3.052c-.396.619-.506 1.902-.308 2.477.626 1.886 2.1 3.518 4.773 3.518.053 0 .106 0 .16-.002 2.774-.066 3.986-1.57 4.052-2.809.059-1.11-.536-2.468-1.706-2.468-.136 0-.28.018-.43.058-1.454.376-1.344 1.592-1.19 1.813.044.062.09.09.133.09.112 0 .216-.177.264-.4.066-.31.396-.64.947-.663a.75.75 0 0 1 .026 0c.544 0 1.158.676.855 1.46-.383.883-1.445 1.6-2.699 1.6-.19 0-.385-.017-.582-.052-2.687-.531-2.29-3.384-1.982-4.357.352-.022 1.079-.11 1.717-.354.685.131 1.338.235 2.003.235.683 0 1.379-.11 2.137-.412 1.46-.582 1.77-2.17 1.785-2.249.014.08.324 1.667 1.784 2.25a5.63 5.63 0 0 0 2.138.411c.665 0 1.317-.104 2.002-.235.639.243 1.366.332 1.718.354.308.973.705 3.826-1.982 4.357a3.339 3.339 0 0 1-.583.051c-1.253 0-2.316-.716-2.698-1.6-.304-.783.31-1.46.855-1.46l.026.001c.55.022.88.354.947.663.047.223.151.4.263.4.044 0 .09-.028.133-.09.154-.221.264-1.437-1.19-1.813a1.716 1.716 0 0 0-.43-.058c-1.17 0-1.764 1.358-1.705 2.468.066 1.239 1.277 2.743 4.052 2.809l.16.002c2.673 0 4.146-1.632 4.772-3.518.199-.575.089-1.858-.308-2.477 1.08-.443 2.268-1.018 2.246-3.052-.022-2.035-1.321-2.986-2.907-3.76-1.563-.774-1.761-1.04-1.761-1.504a.74.74 0 0 1 .815-.73c.396.044.33.243.506.398a.12.12 0 0 0 .079.034c.143 0 .236-.347-.101-.742a.733.733 0 0 0-.578-.262c-.32 0-.66.17-.897.395-.397.376-1.167 1.062-.661 2.433.308.62.99.973 2.026 1.46 1.035.486 1.3 1.415 1.321 1.99.021.555-.162 1.13-1.303 1.13-.041 0-.084 0-.128-.002-.529-.575-1.343-1.04-2.356-1.172a1.502 1.502 0 0 0-.197-.013c-.928 0-1.697.831-1.697.831s-1.257-.098-1.253-1.637c.002-1.036.418-1.482.704-1.482h.02s.038-.008.089-.008c.133 0 .359.058.264.473.136.137.626.287 1.271.287.504 0 1.103-.091 1.701-.353-1.32-.553-2.114-.863-2.598-1.305-.485-.442-.11-1.128.308-1.172.419-.045.97.044 1.322-.708.22-.553.198-.951-.11-1.283.22-.619 1.167-1.15 2.62-1.216.26.203.33.321.561.321.12 0 .284-.032.54-.1.749-.199 2.422-.641 2.598-.73.177-.088.375-.22.485-.597.749-.398 2.268-1.703 2.048-4.136a1.345 1.345 0 0 0-.121-.007c-.153 0-.25.061-.606.383-.44.398-1.211 1.15-1.211 1.15h-.037c-.372 0-3.494.02-4.984.664.309-.774 1.916-2.013 1.916-2.013l1.63-.508s-.353-.531-.287-1.018c.815-.508 1.322-.796 1.322-.796s-.573-.442-1.498-.796c.286-1.99-.044-2.897-.749-4.092C24.555.398 24.246 0 24.026 0"></path></svg>