<svg width="106px" height="40px" xmlns="http://www.w3.org/2000/svg"><path transform="translate(-398.858 -.014)" fill="url(#icons-gradient)" fill-rule="nonzero" d="M437.946064,0 L402.053936,0 C401.210526,0 400.446281,0.341307329 399.895172,0.895931739 C399.344063,1.44750876 399,2.21545025 399,3.05652903 L399,36.943471 C399,37.7875971 399.344063,38.5524912 399.895172,39.1040683 C400.446281,39.6556453 401.210526,40 402.053936,40 L437.946064,40 C438.789474,40 439.553719,39.6556453 440.104828,39.1040683 C440.658982,38.5524912 441,37.7845497 441,36.943471 L441,3.05652903 C441,2.21545025 440.655937,1.44750876 440.104828,0.895931739 C439.553719,0.341307329 438.789474,0 437.946064,0 Z M450.95,33 L451.95,33 L451.95,7 L450.95,7 L450.95,33 Z M436.393214,19.2015846 C436.393214,20.2163645 435.574163,21.0330641 434.566333,21.0330641 L426.722923,21.0330641 L426.722923,18.6743867 L433.336233,18.6743867 C433.725968,18.6743867 434.039582,18.3574585 434.039582,17.967393 L434.039582,10.16913 C434.039582,9.77906445 433.725968,9.46518361 433.336233,9.46518361 L429.782949,9.46518361 C429.399304,9.46518361 429.082645,9.77906445 429.082645,10.16913 L429.082645,13.7132409 C429.082645,14.1063538 429.396259,14.423282 429.782949,14.423282 L432.620705,14.423282 L432.620705,16.7819595 L428.552849,16.7819595 C427.541975,16.7819595 426.722923,15.9652598 426.722923,14.9535274 L426.722923,8.93493829 C426.722923,7.92320585 427.541975,7.10345878 428.552849,7.10345878 L434.566333,7.10345878 C435.574163,7.10345878 436.393214,7.92320585 436.393214,8.93493829 L436.393214,19.2015846 Z M434.060896,32.8904464 L434.060896,25.6803291 L432.428882,25.6803291 C432.045237,25.6803291 431.737712,25.9911626 431.737712,26.3751333 L431.737712,32.8904464 L429.414528,32.8904464 L429.414528,25.6803291 L427.782514,25.6803291 C427.398869,25.6803291 427.091344,25.9911626 427.091344,26.3751333 L427.091344,32.8965412 L424.76816,32.8965412 L424.76816,25.1531312 C424.76816,24.1627305 425.571988,23.3551729 426.570683,23.3551729 L436.39017,23.3551729 L436.39017,32.8904464 L434.060896,32.8904464 Z M411.447151,21.0330641 L403.606786,21.0330641 L403.606786,18.6743867 L410.220096,18.6743867 C410.60983,18.6743867 410.9204,18.3574585 410.9204,17.967393 L410.9204,10.16913 C410.9204,9.77906445 410.60983,9.46518361 410.220096,9.46518361 L406.666812,9.46518361 C406.277077,9.46518361 405.966507,9.77906445 405.966507,10.16913 L405.966507,13.7132409 C405.966507,14.1063538 406.280122,14.423282 406.666812,14.423282 L409.504567,14.423282 L409.504567,16.7819595 L405.436712,16.7819595 C404.425837,16.7819595 403.60983,15.9652598 403.60983,14.9535274 L403.60983,8.93493829 C403.60983,7.92320585 404.425837,7.10345878 405.436712,7.10345878 L411.450196,7.10345878 C412.46107,7.10345878 413.280122,7.92320585 413.280122,8.93493829 L413.280122,19.2015846 C413.277077,20.2163645 412.458025,21.0330641 411.447151,21.0330641 Z M411.514137,25.6803291 L406.627229,25.6803291 C406.243584,25.6803291 405.936059,25.9911626 405.936059,26.3751333 L405.936059,26.3781807 L405.936059,29.8674387 C405.936059,30.2514094 406.243584,30.5652903 406.627229,30.5652903 L411.514137,30.5652903 L411.514137,32.8934938 L405.418443,32.8934938 C404.419748,32.8873991 403.612875,32.0798415 403.612875,31.083346 L403.612875,25.1500838 C403.612875,24.1596831 404.419748,23.3521256 405.418443,23.3521256 L411.514137,23.3521256 L411.514137,25.6742343 L411.514137,25.6803291 Z M423.008264,7.10650617 C424.016094,7.10650617 424.835146,7.92625324 424.835146,8.93798568 L424.835146,14.9565747 C424.835146,15.9683072 424.016094,16.7850069 423.008264,16.7850069 L416.991736,16.7850069 C415.980861,16.7850069 415.164854,15.9683072 415.164854,14.9565747 L415.164854,8.93798568 C415.164854,7.92625324 415.980861,7.10650617 416.991736,7.10650617 Z M421.778164,9.46518361 L418.227925,9.46518361 C417.838191,9.46518361 417.524576,9.77906445 417.524576,10.16913 L417.524576,13.7162883 C417.524576,14.1063538 417.838191,14.423282 418.227925,14.423282 L421.778164,14.423282 C422.167899,14.423282 422.472379,14.1063538 422.472379,13.7132409 L422.472379,10.16913 C422.472379,9.77906445 422.167899,9.46518361 421.778164,9.46518361 Z M421.102218,23.3582203 C422.094824,23.3582203 422.901696,24.1657778 422.901696,25.1561786 L422.901696,31.0894408 C422.901696,32.0859363 422.094824,32.8934938 421.102218,32.8934938 L415.177033,32.8934938 C414.178338,32.8934938 413.374511,32.0859363 413.374511,31.0894408 L413.374511,25.1561786 C413.374511,24.1657778 414.178338,23.3582203 415.177033,23.3582203 Z M419.893432,25.6833765 L416.39191,25.6833765 C416.008264,25.6833765 415.700739,25.99421 415.700739,26.3812281 L415.700739,29.8704861 C415.700739,30.2544568 416.008264,30.5683377 416.39191,30.5683377 L419.884298,30.5652903 C420.274032,30.5683377 420.581557,30.2544568 420.581557,29.8704861 L420.581557,26.3781807 C420.581557,25.99421 420.274032,25.6833765 419.893432,25.6833765 Z M500.032436,28.0367327 L500.032436,29.1725471 L502.720512,29.1725471 C503.138315,29.1725471 503.522326,29.0849444 503.8664,28.9036974 C504.210474,28.7254712 504.486961,28.477767 504.692791,28.1605848 C504.898621,27.8434026 505,27.4778879 505,27.0640406 C505,26.6985259 504.898621,26.3511358 504.692791,26.027912 C504.486961,25.7046883 504.210474,25.4449009 503.860256,25.2545916 C503.510038,25.0642823 503.132171,24.9676172 502.720512,24.9676172 L500.401086,24.9676172 C499.992498,24.9676172 499.61156,25.0582407 499.261342,25.2425085 C498.911124,25.4237554 498.634636,25.6744804 498.428806,25.9856211 C498.222976,26.2967617 498.121597,26.6350894 498.121597,27.0036249 L498.121597,29.9549299 C498.121597,30.3234654 498.222976,30.6648139 498.428806,30.9759546 C498.634636,31.2870952 498.911124,31.5347994 499.261342,31.7190672 C499.608488,31.9063557 499.986354,31.9969792 500.398014,31.9969792 L504.357934,31.9969792 L504.357934,30.8732479 L500.385726,30.8732479 C500.204472,30.8732479 500.032436,30.8339778 499.875759,30.7554374 C499.719083,30.6768971 499.596199,30.5681489 499.510181,30.4261721 C499.42109,30.287216 499.378081,30.1331561 499.378081,29.9700338 L499.378081,26.9945626 C499.378081,26.8314403 499.42109,26.6804012 499.510181,26.5384244 C499.596199,26.3964476 499.719083,26.2876994 499.875759,26.209159 C500.032436,26.1306187 500.2014,26.0913485 500.385726,26.0913485 L502.7328,26.0913485 C502.907909,26.0913485 503.073802,26.1366602 503.230478,26.2272837 C503.390226,26.3148864 503.51311,26.4387385 503.605273,26.5897777 C503.697435,26.7408168 503.743516,26.9009183 503.743516,27.0640406 C503.743516,27.3630981 503.648282,27.5987192 503.45474,27.7739246 C503.261199,27.94913 503.021576,28.0367327 502.7328,28.0367327 L500.032436,28.0367327 Z M495.602486,25.2364669 C495.246124,25.0521991 494.862113,24.9615756 494.441237,24.9615756 L490.83768,24.9615756 C490.656426,24.9615756 490.502822,25.0159497 490.379939,25.1246979 C490.257055,25.2334461 490.195613,25.3663606 490.195613,25.5234413 L490.195613,31.9909377 L491.455169,31.9909377 L491.455169,26.09739 L494.456598,26.09739 C494.640923,26.09739 494.81296,26.1366602 494.975781,26.2152006 C495.138601,26.2937409 495.264557,26.4024891 495.356719,26.5444659 C495.448882,26.6834219 495.494963,26.8374819 495.494963,27.0006042 L495.494963,31.9909377 L496.766807,31.9909377 L496.766807,27.0006042 C496.766807,26.6350894 496.662356,26.2937409 496.453454,25.9826003 C496.244552,25.6714596 495.96192,25.4237554 495.60863,25.2394877 L495.602486,25.2364669 Z M486.914625,31.9939584 L488.17418,31.9939584 L488.17418,24.9645964 L486.914625,24.9645964 L486.914625,31.9939584 Z M486.911552,23.7442001 L488.171108,23.7442001 L488.171108,22.6204688 L486.911552,22.6204688 L486.911552,23.7442001 Z M483.37558,30.4050266 C483.28649,30.2660706 483.243481,30.1120106 483.243481,29.9488884 L483.243481,22.6265104 L482.472387,22.6265104 L479.286633,22.6234896 C478.874973,22.6234896 478.497107,22.7141131 478.153033,22.8983809 C477.805887,23.0826486 477.532471,23.3303528 477.332786,23.6414935 C477.1331,23.9556549 477.031721,24.3000242 477.031721,24.6746013 L477.031721,24.9676172 L476.469529,24.9658047 L473.892048,24.9645964 L473.892048,24.6625181 C473.892048,24.4993958 473.935058,24.3483567 474.024148,24.2063799 C474.110166,24.0644031 474.23305,23.9526341 474.389726,23.871073 C474.546403,23.7895118 474.715368,23.7472209 474.899693,23.7472209 L476.248339,23.7472209 L476.248339,22.6234896 L474.884332,22.6234896 C474.472673,22.6234896 474.094806,22.7141131 473.750732,22.8983809 C473.403586,23.0826486 473.130171,23.3303528 472.930485,23.6414935 C472.733872,23.9556549 472.632493,24.3000242 472.632493,24.6746013 L472.632493,24.9645964 L471.710867,24.9645964 L471.710867,26.0883277 L472.632493,26.0883277 L472.632493,31.9969792 L473.892048,31.9969792 L473.892048,26.0883277 L476.116239,26.0883277 L476.469529,26.0883277 L477.031721,26.0883277 L477.031721,31.9969792 L478.291277,31.9969792 L478.291277,26.0883277 L479.824248,26.0883277 L479.824248,24.9766796 L478.291277,24.9715442 L478.291277,24.6625181 C478.291277,24.4993958 478.337358,24.3483567 478.423376,24.2063799 C478.509395,24.0644031 478.632278,23.9526341 478.788955,23.871073 C478.945631,23.7895118 479.114596,23.7472209 479.298921,23.7472209 L481.971637,23.7472209 L481.971637,29.9488884 C481.971637,30.3234654 482.073016,30.6648139 482.272701,30.9729338 C482.475459,31.2810536 482.745803,31.5287579 483.086804,31.7160464 L483.086804,31.7190672 C483.427806,31.9063557 483.799528,32 484.201972,32 L484.856326,32 L484.856326,30.8521025 L484.238837,30.8521025 C484.057584,30.8521025 483.888619,30.8128323 483.735015,30.7342919 C483.584482,30.6557516 483.464671,30.5439826 483.37558,30.4050266 Z M469.118025,25.221363 C469.118025,24.9494925 469.041223,24.6987675 468.887619,24.4722088 C468.734014,24.2456501 468.528185,24.0674239 468.270129,23.9375302 C468.012074,23.8076365 467.72637,23.7442001 467.413017,23.7442001 L464.961492,23.7442001 C464.648139,23.7442001 464.359363,23.8106573 464.10438,23.9435718 C463.846324,24.079507 463.640494,24.2577332 463.48689,24.4842919 C463.333286,24.7108507 463.256484,24.9615756 463.256484,25.2334461 L463.256484,29.3809812 C463.256484,29.6558724 463.333286,29.9035766 463.48689,30.1301353 C463.640494,30.3566941 463.846324,30.537941 464.10438,30.6678347 C464.362435,30.8007492 464.648139,30.8672064 464.961492,30.8672064 L467.413017,30.8672064 C467.72637,30.8672064 468.015146,30.8007492 468.270129,30.6678347 C468.528185,30.5349203 468.734014,30.3566941 468.887619,30.1301353 C469.041223,29.9035766 469.118025,29.6528516 469.118025,29.3809812 L469.118025,25.221363 Z M470.377581,25.2243838 L470.377581,29.3840019 C470.377581,29.8612856 470.245481,30.2992992 469.984354,30.6950217 C469.723226,31.0937651 469.363792,31.4109473 468.909123,31.6435476 C468.454455,31.8791687 467.956776,31.9939584 467.416089,31.9939584 L464.964564,31.9939584 C464.423877,31.9939584 463.923126,31.8761479 463.47153,31.6435476 C463.016861,31.4079265 462.657427,31.0937651 462.396299,30.6950217 C462.135172,30.2962784 462.003072,29.8582649 462.003072,29.3840019 L462.003072,25.2364669 C462.003072,24.7591832 462.135172,24.3211696 462.396299,23.9254471 C462.657427,23.5267037 463.013789,23.2095215 463.465385,22.9769212 C463.91391,22.7413001 464.411588,22.6265104 464.952275,22.6265104 L467.416089,22.6265104 C467.956776,22.6265104 468.454455,22.7443209 468.909123,22.9769212 C469.363792,23.2095215 469.723226,23.5236829 469.984354,23.9224263 C470.245481,24.3211696 470.377581,24.7531416 470.377581,25.2243838 Z M488.773237,15.2225713 L485.784097,15.2225713 C485.590555,15.2225713 485.415446,15.1833011 485.252626,15.1047608 C485.089805,15.0262204 484.963849,14.9174722 484.871687,14.781537 C484.779524,14.6456017 484.733443,14.5006042 484.733443,14.3435234 L484.733443,9.34110681 L483.473887,9.34110681 L483.473887,14.3676897 C483.473887,14.7271629 483.575266,15.0624698 483.781096,15.3705897 C483.986926,15.6787095 484.266486,15.9233929 484.619776,16.1016191 C484.97921,16.2798453 485.363221,16.3704688 485.784097,16.3704688 L488.773237,16.3704688 L488.773237,16.6846303 C488.773237,16.841711 488.727156,16.9897293 488.634993,17.1256646 C488.542831,17.2615998 488.416875,17.370348 488.254054,17.4488884 C488.091234,17.5274287 487.919197,17.5666989 487.734872,17.5666989 L484.856326,17.5666989 L484.856326,18.7115756 L487.725655,18.7115756 C488.146531,18.7115756 488.533614,18.6209522 488.886904,18.442726 C489.240194,18.2644998 489.522826,18.0198163 489.731728,17.7116965 C489.94063,17.4035766 490.045081,17.0682697 490.045081,16.7087965 L490.045081,9.33808603 L488.773237,9.33808603 L488.773237,15.2225713 Z M477.363506,16.3704688 L479.670644,16.3704688 C480.079231,16.3704688 480.463242,16.2798453 480.816532,16.0955776 C481.169822,15.9143306 481.449382,15.6636056 481.655212,15.352465 C481.861042,15.0383035 481.962421,14.6999758 481.962421,14.3314403 L481.962421,11.3801353 C481.962421,11.0146206 481.861042,10.6732721 481.655212,10.3621315 C481.449382,10.0509908 481.169822,9.80328661 480.816532,9.61901885 C480.463242,9.43475109 480.082303,9.3441276 479.670644,9.3441276 L476.392727,9.3441276 L476.392727,10.4678589 L479.682932,10.4678589 C479.864185,10.4678589 480.036222,10.507129 480.192898,10.5856694 C480.349575,10.6642098 480.469386,10.772958 480.558477,10.9149348 C480.647567,11.0538908 480.690577,11.2079507 480.690577,11.371073 L480.690577,14.3465442 C480.690577,14.5096665 480.644495,14.6607057 480.558477,14.8026825 C480.472458,14.9446593 480.349575,15.0534074 480.192898,15.1319478 C480.036222,15.2104882 479.867257,15.2497583 479.682932,15.2497583 L477.335858,15.2497583 C477.160749,15.2497583 476.994856,15.2044466 476.83818,15.1138231 C476.678431,15.0262204 476.555548,14.9023683 476.463385,14.7513291 C476.371222,14.60029 476.325141,14.4401885 476.325141,14.2770662 C476.325141,13.9780087 476.420376,13.7423876 476.613917,13.5671822 C476.807459,13.3919768 477.047082,13.3043741 477.335858,13.3043741 L480.036222,13.3043741 L480.036222,12.1685597 L477.363506,12.1685597 C476.945703,12.1685597 476.561692,12.2591832 476.211474,12.4374094 C475.861256,12.6156356 475.584768,12.8663606 475.378938,13.1865636 C475.173109,13.5067666 475.07173,13.8722813 475.07173,14.2770662 C475.07173,14.6516433 475.173109,14.9990333 475.378938,15.3192363 C475.584768,15.6394393 475.861256,15.8962059 476.211474,16.0865152 C476.55862,16.2738038 476.942631,16.3704688 477.363506,16.3704688 Z M473.431235,16.3765104 L473.431235,15.2286129 L472.813746,15.2286129 C472.632493,15.2286129 472.460456,15.1893427 472.303779,15.1108023 C472.147103,15.032262 472.027292,14.920493 471.938201,14.781537 C471.849111,14.642581 471.806101,14.488521 471.806101,14.3253987 L471.806101,7.00302078 L470.534257,7.00302078 L470.534257,14.3253987 C470.534257,14.6999758 470.635636,15.0413243 470.835322,15.3494442 C471.03808,15.657564 471.308423,15.9052682 471.649425,16.0925568 L471.646353,16.0955776 C471.987354,16.2828661 472.359077,16.3765104 472.76152,16.3765104 L473.431235,16.3765104 Z M463.259556,16.3734896 L462,16.3734896 L462,7.56186564 C462,7.40478492 462.064514,7.27187047 462.190469,7.16312228 C462.316425,7.05437409 462.466957,7 462.642066,7 L466.417661,7 C466.949132,7 467.440666,7.11781054 467.892263,7.35645239 C468.340787,7.59509425 468.697149,7.91227646 468.961349,8.31101982 C469.222476,8.70976317 469.354576,9.1477767 469.354576,9.62203963 C469.354576,10.0963026 469.225548,10.5373369 468.967493,10.939101 C468.709438,11.3408652 468.356148,11.6610681 467.904551,11.8936684 C467.452954,12.1292895 466.958348,12.2440793 466.417661,12.2440793 L463.91391,12.2440793 L463.91391,11.1324311 L466.417661,11.1324311 C466.72487,11.1324311 467.00443,11.0629531 467.262485,10.9270179 C467.52054,10.7910826 467.723298,10.6068149 467.870758,10.3772354 C468.018218,10.1476559 468.09502,9.8939101 468.09502,9.62203963 C468.09502,9.35016916 468.02129,9.09642339 467.870758,8.86684389 C467.723298,8.63726438 467.517468,8.4560174 467.262485,8.32310295 C467.00443,8.1901885 466.721798,8.12373127 466.417661,8.12373127 L463.259556,8.12373127 L463.259556,16.3734896 Z"></path><path class="hover" transform="translate(-398.858 -.014)" fill="url(#icons-gradient-white)" fill-rule="nonzero" d="M437.946064,0 L402.053936,0 C401.210526,0 400.446281,0.341307329 399.895172,0.895931739 C399.344063,1.44750876 399,2.21545025 399,3.05652903 L399,36.943471 C399,37.7875971 399.344063,38.5524912 399.895172,39.1040683 C400.446281,39.6556453 401.210526,40 402.053936,40 L437.946064,40 C438.789474,40 439.553719,39.6556453 440.104828,39.1040683 C440.658982,38.5524912 441,37.7845497 441,36.943471 L441,3.05652903 C441,2.21545025 440.655937,1.44750876 440.104828,0.895931739 C439.553719,0.341307329 438.789474,0 437.946064,0 Z M450.95,33 L451.95,33 L451.95,7 L450.95,7 L450.95,33 Z M436.393214,19.2015846 C436.393214,20.2163645 435.574163,21.0330641 434.566333,21.0330641 L426.722923,21.0330641 L426.722923,18.6743867 L433.336233,18.6743867 C433.725968,18.6743867 434.039582,18.3574585 434.039582,17.967393 L434.039582,10.16913 C434.039582,9.77906445 433.725968,9.46518361 433.336233,9.46518361 L429.782949,9.46518361 C429.399304,9.46518361 429.082645,9.77906445 429.082645,10.16913 L429.082645,13.7132409 C429.082645,14.1063538 429.396259,14.423282 429.782949,14.423282 L432.620705,14.423282 L432.620705,16.7819595 L428.552849,16.7819595 C427.541975,16.7819595 426.722923,15.9652598 426.722923,14.9535274 L426.722923,8.93493829 C426.722923,7.92320585 427.541975,7.10345878 428.552849,7.10345878 L434.566333,7.10345878 C435.574163,7.10345878 436.393214,7.92320585 436.393214,8.93493829 L436.393214,19.2015846 Z M434.060896,32.8904464 L434.060896,25.6803291 L432.428882,25.6803291 C432.045237,25.6803291 431.737712,25.9911626 431.737712,26.3751333 L431.737712,32.8904464 L429.414528,32.8904464 L429.414528,25.6803291 L427.782514,25.6803291 C427.398869,25.6803291 427.091344,25.9911626 427.091344,26.3751333 L427.091344,32.8965412 L424.76816,32.8965412 L424.76816,25.1531312 C424.76816,24.1627305 425.571988,23.3551729 426.570683,23.3551729 L436.39017,23.3551729 L436.39017,32.8904464 L434.060896,32.8904464 Z M411.447151,21.0330641 L403.606786,21.0330641 L403.606786,18.6743867 L410.220096,18.6743867 C410.60983,18.6743867 410.9204,18.3574585 410.9204,17.967393 L410.9204,10.16913 C410.9204,9.77906445 410.60983,9.46518361 410.220096,9.46518361 L406.666812,9.46518361 C406.277077,9.46518361 405.966507,9.77906445 405.966507,10.16913 L405.966507,13.7132409 C405.966507,14.1063538 406.280122,14.423282 406.666812,14.423282 L409.504567,14.423282 L409.504567,16.7819595 L405.436712,16.7819595 C404.425837,16.7819595 403.60983,15.9652598 403.60983,14.9535274 L403.60983,8.93493829 C403.60983,7.92320585 404.425837,7.10345878 405.436712,7.10345878 L411.450196,7.10345878 C412.46107,7.10345878 413.280122,7.92320585 413.280122,8.93493829 L413.280122,19.2015846 C413.277077,20.2163645 412.458025,21.0330641 411.447151,21.0330641 Z M411.514137,25.6803291 L406.627229,25.6803291 C406.243584,25.6803291 405.936059,25.9911626 405.936059,26.3751333 L405.936059,26.3781807 L405.936059,29.8674387 C405.936059,30.2514094 406.243584,30.5652903 406.627229,30.5652903 L411.514137,30.5652903 L411.514137,32.8934938 L405.418443,32.8934938 C404.419748,32.8873991 403.612875,32.0798415 403.612875,31.083346 L403.612875,25.1500838 C403.612875,24.1596831 404.419748,23.3521256 405.418443,23.3521256 L411.514137,23.3521256 L411.514137,25.6742343 L411.514137,25.6803291 Z M423.008264,7.10650617 C424.016094,7.10650617 424.835146,7.92625324 424.835146,8.93798568 L424.835146,14.9565747 C424.835146,15.9683072 424.016094,16.7850069 423.008264,16.7850069 L416.991736,16.7850069 C415.980861,16.7850069 415.164854,15.9683072 415.164854,14.9565747 L415.164854,8.93798568 C415.164854,7.92625324 415.980861,7.10650617 416.991736,7.10650617 Z M421.778164,9.46518361 L418.227925,9.46518361 C417.838191,9.46518361 417.524576,9.77906445 417.524576,10.16913 L417.524576,13.7162883 C417.524576,14.1063538 417.838191,14.423282 418.227925,14.423282 L421.778164,14.423282 C422.167899,14.423282 422.472379,14.1063538 422.472379,13.7132409 L422.472379,10.16913 C422.472379,9.77906445 422.167899,9.46518361 421.778164,9.46518361 Z M421.102218,23.3582203 C422.094824,23.3582203 422.901696,24.1657778 422.901696,25.1561786 L422.901696,31.0894408 C422.901696,32.0859363 422.094824,32.8934938 421.102218,32.8934938 L415.177033,32.8934938 C414.178338,32.8934938 413.374511,32.0859363 413.374511,31.0894408 L413.374511,25.1561786 C413.374511,24.1657778 414.178338,23.3582203 415.177033,23.3582203 Z M419.893432,25.6833765 L416.39191,25.6833765 C416.008264,25.6833765 415.700739,25.99421 415.700739,26.3812281 L415.700739,29.8704861 C415.700739,30.2544568 416.008264,30.5683377 416.39191,30.5683377 L419.884298,30.5652903 C420.274032,30.5683377 420.581557,30.2544568 420.581557,29.8704861 L420.581557,26.3781807 C420.581557,25.99421 420.274032,25.6833765 419.893432,25.6833765 Z M500.032436,28.0367327 L500.032436,29.1725471 L502.720512,29.1725471 C503.138315,29.1725471 503.522326,29.0849444 503.8664,28.9036974 C504.210474,28.7254712 504.486961,28.477767 504.692791,28.1605848 C504.898621,27.8434026 505,27.4778879 505,27.0640406 C505,26.6985259 504.898621,26.3511358 504.692791,26.027912 C504.486961,25.7046883 504.210474,25.4449009 503.860256,25.2545916 C503.510038,25.0642823 503.132171,24.9676172 502.720512,24.9676172 L500.401086,24.9676172 C499.992498,24.9676172 499.61156,25.0582407 499.261342,25.2425085 C498.911124,25.4237554 498.634636,25.6744804 498.428806,25.9856211 C498.222976,26.2967617 498.121597,26.6350894 498.121597,27.0036249 L498.121597,29.9549299 C498.121597,30.3234654 498.222976,30.6648139 498.428806,30.9759546 C498.634636,31.2870952 498.911124,31.5347994 499.261342,31.7190672 C499.608488,31.9063557 499.986354,31.9969792 500.398014,31.9969792 L504.357934,31.9969792 L504.357934,30.8732479 L500.385726,30.8732479 C500.204472,30.8732479 500.032436,30.8339778 499.875759,30.7554374 C499.719083,30.6768971 499.596199,30.5681489 499.510181,30.4261721 C499.42109,30.287216 499.378081,30.1331561 499.378081,29.9700338 L499.378081,26.9945626 C499.378081,26.8314403 499.42109,26.6804012 499.510181,26.5384244 C499.596199,26.3964476 499.719083,26.2876994 499.875759,26.209159 C500.032436,26.1306187 500.2014,26.0913485 500.385726,26.0913485 L502.7328,26.0913485 C502.907909,26.0913485 503.073802,26.1366602 503.230478,26.2272837 C503.390226,26.3148864 503.51311,26.4387385 503.605273,26.5897777 C503.697435,26.7408168 503.743516,26.9009183 503.743516,27.0640406 C503.743516,27.3630981 503.648282,27.5987192 503.45474,27.7739246 C503.261199,27.94913 503.021576,28.0367327 502.7328,28.0367327 L500.032436,28.0367327 Z M495.602486,25.2364669 C495.246124,25.0521991 494.862113,24.9615756 494.441237,24.9615756 L490.83768,24.9615756 C490.656426,24.9615756 490.502822,25.0159497 490.379939,25.1246979 C490.257055,25.2334461 490.195613,25.3663606 490.195613,25.5234413 L490.195613,31.9909377 L491.455169,31.9909377 L491.455169,26.09739 L494.456598,26.09739 C494.640923,26.09739 494.81296,26.1366602 494.975781,26.2152006 C495.138601,26.2937409 495.264557,26.4024891 495.356719,26.5444659 C495.448882,26.6834219 495.494963,26.8374819 495.494963,27.0006042 L495.494963,31.9909377 L496.766807,31.9909377 L496.766807,27.0006042 C496.766807,26.6350894 496.662356,26.2937409 496.453454,25.9826003 C496.244552,25.6714596 495.96192,25.4237554 495.60863,25.2394877 L495.602486,25.2364669 Z M486.914625,31.9939584 L488.17418,31.9939584 L488.17418,24.9645964 L486.914625,24.9645964 L486.914625,31.9939584 Z M486.911552,23.7442001 L488.171108,23.7442001 L488.171108,22.6204688 L486.911552,22.6204688 L486.911552,23.7442001 Z M483.37558,30.4050266 C483.28649,30.2660706 483.243481,30.1120106 483.243481,29.9488884 L483.243481,22.6265104 L482.472387,22.6265104 L479.286633,22.6234896 C478.874973,22.6234896 478.497107,22.7141131 478.153033,22.8983809 C477.805887,23.0826486 477.532471,23.3303528 477.332786,23.6414935 C477.1331,23.9556549 477.031721,24.3000242 477.031721,24.6746013 L477.031721,24.9676172 L476.469529,24.9658047 L473.892048,24.9645964 L473.892048,24.6625181 C473.892048,24.4993958 473.935058,24.3483567 474.024148,24.2063799 C474.110166,24.0644031 474.23305,23.9526341 474.389726,23.871073 C474.546403,23.7895118 474.715368,23.7472209 474.899693,23.7472209 L476.248339,23.7472209 L476.248339,22.6234896 L474.884332,22.6234896 C474.472673,22.6234896 474.094806,22.7141131 473.750732,22.8983809 C473.403586,23.0826486 473.130171,23.3303528 472.930485,23.6414935 C472.733872,23.9556549 472.632493,24.3000242 472.632493,24.6746013 L472.632493,24.9645964 L471.710867,24.9645964 L471.710867,26.0883277 L472.632493,26.0883277 L472.632493,31.9969792 L473.892048,31.9969792 L473.892048,26.0883277 L476.116239,26.0883277 L476.469529,26.0883277 L477.031721,26.0883277 L477.031721,31.9969792 L478.291277,31.9969792 L478.291277,26.0883277 L479.824248,26.0883277 L479.824248,24.9766796 L478.291277,24.9715442 L478.291277,24.6625181 C478.291277,24.4993958 478.337358,24.3483567 478.423376,24.2063799 C478.509395,24.0644031 478.632278,23.9526341 478.788955,23.871073 C478.945631,23.7895118 479.114596,23.7472209 479.298921,23.7472209 L481.971637,23.7472209 L481.971637,29.9488884 C481.971637,30.3234654 482.073016,30.6648139 482.272701,30.9729338 C482.475459,31.2810536 482.745803,31.5287579 483.086804,31.7160464 L483.086804,31.7190672 C483.427806,31.9063557 483.799528,32 484.201972,32 L484.856326,32 L484.856326,30.8521025 L484.238837,30.8521025 C484.057584,30.8521025 483.888619,30.8128323 483.735015,30.7342919 C483.584482,30.6557516 483.464671,30.5439826 483.37558,30.4050266 Z M469.118025,25.221363 C469.118025,24.9494925 469.041223,24.6987675 468.887619,24.4722088 C468.734014,24.2456501 468.528185,24.0674239 468.270129,23.9375302 C468.012074,23.8076365 467.72637,23.7442001 467.413017,23.7442001 L464.961492,23.7442001 C464.648139,23.7442001 464.359363,23.8106573 464.10438,23.9435718 C463.846324,24.079507 463.640494,24.2577332 463.48689,24.4842919 C463.333286,24.7108507 463.256484,24.9615756 463.256484,25.2334461 L463.256484,29.3809812 C463.256484,29.6558724 463.333286,29.9035766 463.48689,30.1301353 C463.640494,30.3566941 463.846324,30.537941 464.10438,30.6678347 C464.362435,30.8007492 464.648139,30.8672064 464.961492,30.8672064 L467.413017,30.8672064 C467.72637,30.8672064 468.015146,30.8007492 468.270129,30.6678347 C468.528185,30.5349203 468.734014,30.3566941 468.887619,30.1301353 C469.041223,29.9035766 469.118025,29.6528516 469.118025,29.3809812 L469.118025,25.221363 Z M470.377581,25.2243838 L470.377581,29.3840019 C470.377581,29.8612856 470.245481,30.2992992 469.984354,30.6950217 C469.723226,31.0937651 469.363792,31.4109473 468.909123,31.6435476 C468.454455,31.8791687 467.956776,31.9939584 467.416089,31.9939584 L464.964564,31.9939584 C464.423877,31.9939584 463.923126,31.8761479 463.47153,31.6435476 C463.016861,31.4079265 462.657427,31.0937651 462.396299,30.6950217 C462.135172,30.2962784 462.003072,29.8582649 462.003072,29.3840019 L462.003072,25.2364669 C462.003072,24.7591832 462.135172,24.3211696 462.396299,23.9254471 C462.657427,23.5267037 463.013789,23.2095215 463.465385,22.9769212 C463.91391,22.7413001 464.411588,22.6265104 464.952275,22.6265104 L467.416089,22.6265104 C467.956776,22.6265104 468.454455,22.7443209 468.909123,22.9769212 C469.363792,23.2095215 469.723226,23.5236829 469.984354,23.9224263 C470.245481,24.3211696 470.377581,24.7531416 470.377581,25.2243838 Z M488.773237,15.2225713 L485.784097,15.2225713 C485.590555,15.2225713 485.415446,15.1833011 485.252626,15.1047608 C485.089805,15.0262204 484.963849,14.9174722 484.871687,14.781537 C484.779524,14.6456017 484.733443,14.5006042 484.733443,14.3435234 L484.733443,9.34110681 L483.473887,9.34110681 L483.473887,14.3676897 C483.473887,14.7271629 483.575266,15.0624698 483.781096,15.3705897 C483.986926,15.6787095 484.266486,15.9233929 484.619776,16.1016191 C484.97921,16.2798453 485.363221,16.3704688 485.784097,16.3704688 L488.773237,16.3704688 L488.773237,16.6846303 C488.773237,16.841711 488.727156,16.9897293 488.634993,17.1256646 C488.542831,17.2615998 488.416875,17.370348 488.254054,17.4488884 C488.091234,17.5274287 487.919197,17.5666989 487.734872,17.5666989 L484.856326,17.5666989 L484.856326,18.7115756 L487.725655,18.7115756 C488.146531,18.7115756 488.533614,18.6209522 488.886904,18.442726 C489.240194,18.2644998 489.522826,18.0198163 489.731728,17.7116965 C489.94063,17.4035766 490.045081,17.0682697 490.045081,16.7087965 L490.045081,9.33808603 L488.773237,9.33808603 L488.773237,15.2225713 Z M477.363506,16.3704688 L479.670644,16.3704688 C480.079231,16.3704688 480.463242,16.2798453 480.816532,16.0955776 C481.169822,15.9143306 481.449382,15.6636056 481.655212,15.352465 C481.861042,15.0383035 481.962421,14.6999758 481.962421,14.3314403 L481.962421,11.3801353 C481.962421,11.0146206 481.861042,10.6732721 481.655212,10.3621315 C481.449382,10.0509908 481.169822,9.80328661 480.816532,9.61901885 C480.463242,9.43475109 480.082303,9.3441276 479.670644,9.3441276 L476.392727,9.3441276 L476.392727,10.4678589 L479.682932,10.4678589 C479.864185,10.4678589 480.036222,10.507129 480.192898,10.5856694 C480.349575,10.6642098 480.469386,10.772958 480.558477,10.9149348 C480.647567,11.0538908 480.690577,11.2079507 480.690577,11.371073 L480.690577,14.3465442 C480.690577,14.5096665 480.644495,14.6607057 480.558477,14.8026825 C480.472458,14.9446593 480.349575,15.0534074 480.192898,15.1319478 C480.036222,15.2104882 479.867257,15.2497583 479.682932,15.2497583 L477.335858,15.2497583 C477.160749,15.2497583 476.994856,15.2044466 476.83818,15.1138231 C476.678431,15.0262204 476.555548,14.9023683 476.463385,14.7513291 C476.371222,14.60029 476.325141,14.4401885 476.325141,14.2770662 C476.325141,13.9780087 476.420376,13.7423876 476.613917,13.5671822 C476.807459,13.3919768 477.047082,13.3043741 477.335858,13.3043741 L480.036222,13.3043741 L480.036222,12.1685597 L477.363506,12.1685597 C476.945703,12.1685597 476.561692,12.2591832 476.211474,12.4374094 C475.861256,12.6156356 475.584768,12.8663606 475.378938,13.1865636 C475.173109,13.5067666 475.07173,13.8722813 475.07173,14.2770662 C475.07173,14.6516433 475.173109,14.9990333 475.378938,15.3192363 C475.584768,15.6394393 475.861256,15.8962059 476.211474,16.0865152 C476.55862,16.2738038 476.942631,16.3704688 477.363506,16.3704688 Z M473.431235,16.3765104 L473.431235,15.2286129 L472.813746,15.2286129 C472.632493,15.2286129 472.460456,15.1893427 472.303779,15.1108023 C472.147103,15.032262 472.027292,14.920493 471.938201,14.781537 C471.849111,14.642581 471.806101,14.488521 471.806101,14.3253987 L471.806101,7.00302078 L470.534257,7.00302078 L470.534257,14.3253987 C470.534257,14.6999758 470.635636,15.0413243 470.835322,15.3494442 C471.03808,15.657564 471.308423,15.9052682 471.649425,16.0925568 L471.646353,16.0955776 C471.987354,16.2828661 472.359077,16.3765104 472.76152,16.3765104 L473.431235,16.3765104 Z M463.259556,16.3734896 L462,16.3734896 L462,7.56186564 C462,7.40478492 462.064514,7.27187047 462.190469,7.16312228 C462.316425,7.05437409 462.466957,7 462.642066,7 L466.417661,7 C466.949132,7 467.440666,7.11781054 467.892263,7.35645239 C468.340787,7.59509425 468.697149,7.91227646 468.961349,8.31101982 C469.222476,8.70976317 469.354576,9.1477767 469.354576,9.62203963 C469.354576,10.0963026 469.225548,10.5373369 468.967493,10.939101 C468.709438,11.3408652 468.356148,11.6610681 467.904551,11.8936684 C467.452954,12.1292895 466.958348,12.2440793 466.417661,12.2440793 L463.91391,12.2440793 L463.91391,11.1324311 L466.417661,11.1324311 C466.72487,11.1324311 467.00443,11.0629531 467.262485,10.9270179 C467.52054,10.7910826 467.723298,10.6068149 467.870758,10.3772354 C468.018218,10.1476559 468.09502,9.8939101 468.09502,9.62203963 C468.09502,9.35016916 468.02129,9.09642339 467.870758,8.86684389 C467.723298,8.63726438 467.517468,8.4560174 467.262485,8.32310295 C467.00443,8.1901885 466.721798,8.12373127 466.417661,8.12373127 L463.259556,8.12373127 L463.259556,16.3734896 Z"></path></svg>